<svg width="321" height="22" viewBox="0 0 321 22" fill="none" xmlns="http://www.w3.org/2000/svg">
<path d="M0 21.6354V0.36464H8.88051C10.7172 0.36464 12.2999 0.678636 13.6285 1.30663C14.9572 1.91436 15.983 2.79558 16.7059 3.95028C17.4289 5.10497 17.7903 6.4825 17.7903 8.08287C17.7903 9.66298 17.4289 11.0304 16.7059 12.1851C15.983 13.3398 14.9572 14.2311 13.6285 14.8591C12.2999 15.4669 10.7172 15.7707 8.88051 15.7707H2.63778L4.748 13.5525V21.6354H0ZM4.748 14.0994L2.63778 11.7597H8.61674C10.0822 11.7597 11.1764 11.4355 11.8993 10.7873C12.6222 10.139 12.9837 9.23757 12.9837 8.08287C12.9837 6.90792 12.6222 5.99632 11.8993 5.34807C11.1764 4.69982 10.0822 4.37569 8.61674 4.37569H2.63778L4.748 2.03591V14.0994Z" fill="white"/>
<path d="M17.4533 21.6354L26.5976 0.36464H31.287L40.4606 21.6354H35.4781L27.9751 2.85635H29.8508L22.3185 21.6354H17.4533ZM22.0254 17.0773L23.2857 13.3398H33.8368L35.1264 17.0773H22.0254Z" fill="white"/>
<path d="M42.5891 21.6354V0.36464H46.5165L58.6209 15.6796H56.7159V0.36464H61.4052V21.6354H57.5072L45.3734 6.32044H47.2785V21.6354H42.5891Z" fill="white"/>
<path d="M76.2242 22C74.6024 22 73.0979 21.7265 71.7107 21.1796C70.3429 20.6326 69.151 19.8628 68.135 18.8702C67.1385 17.8775 66.3569 16.7127 65.7903 15.3757C65.2432 14.0387 64.9697 12.5801 64.9697 11C64.9697 9.41989 65.2432 7.96133 65.7903 6.62431C66.3569 5.28729 67.1483 4.12247 68.1643 3.12983C69.1803 2.1372 70.3722 1.3674 71.74 0.82044C73.1077 0.27348 74.5927 0 76.1949 0C77.8166 0 79.3016 0.27348 80.6498 0.82044C82.0175 1.3674 83.1996 2.1372 84.1961 3.12983C85.2122 4.12247 86.0035 5.28729 86.5701 6.62431C87.1368 7.94107 87.4201 9.39963 87.4201 11C87.4201 12.5801 87.1368 14.0488 86.5701 15.4061C86.0035 16.7431 85.2122 17.9079 84.1961 18.9006C83.1996 19.8729 82.0175 20.6326 80.6498 21.1796C79.3016 21.7265 77.8264 22 76.2242 22ZM76.1949 17.8066C77.1132 17.8066 77.9534 17.6446 78.7154 17.3204C79.497 16.9963 80.1808 16.5304 80.767 15.9227C81.3532 15.3149 81.8026 14.5958 82.1152 13.7652C82.4474 12.9346 82.6135 12.0129 82.6135 11C82.6135 9.98711 82.4474 9.06538 82.1152 8.23481C81.8026 7.40424 81.3532 6.68508 80.767 6.07735C80.2004 5.46961 79.5263 5.00368 78.7447 4.67956C77.9632 4.35543 77.1132 4.19337 76.1949 4.19337C75.2765 4.19337 74.4266 4.35543 73.645 4.67956C72.883 5.00368 72.2089 5.46961 71.6227 6.07735C71.0366 6.68508 70.5774 7.40424 70.2452 8.23481C69.9326 9.06538 69.7763 9.98711 69.7763 11C69.7763 11.9926 69.9326 12.9144 70.2452 13.7652C70.5774 14.5958 71.0268 15.3149 71.5934 15.9227C72.1796 16.5304 72.8635 16.9963 73.645 17.3204C74.4266 17.6446 75.2765 17.8066 76.1949 17.8066Z" fill="white"/>
<path d="M90.9884 21.6354V0.36464H99.8689C101.706 0.36464 103.288 0.678636 104.617 1.30663C105.946 1.91436 106.971 2.79558 107.694 3.95028C108.417 5.10497 108.779 6.4825 108.779 8.08287C108.779 9.66298 108.417 11.0304 107.694 12.1851C106.971 13.3195 105.946 14.1906 104.617 14.7983C103.288 15.4061 101.706 15.7099 99.8689 15.7099H93.6262L95.7364 13.5525V21.6354H90.9884ZM104.031 21.6354L98.9017 13.9171H103.972L109.16 21.6354H104.031ZM95.7364 14.0994L93.6262 11.7901H99.6051C101.071 11.7901 102.165 11.4659 102.888 10.8177C103.611 10.1492 103.972 9.23757 103.972 8.08287C103.972 6.90792 103.611 5.99632 102.888 5.34807C102.165 4.69982 101.071 4.37569 99.6051 4.37569H93.6262L95.7364 2.03591V14.0994Z" fill="white"/>
<path d="M109.844 21.6354L118.988 0.36464H123.678L132.851 21.6354H127.869L120.366 2.85635H122.242L114.709 21.6354H109.844ZM114.416 17.0773L115.677 13.3398H126.228L127.517 17.0773H114.416Z" fill="white"/>
<path d="M134.98 21.6354V0.36464H138.907L147.641 15.3757H145.56L154.148 0.36464H158.046L158.104 21.6354H153.65L153.62 7.44475H154.441L147.583 19.3867H145.443L138.438 7.44475H139.435V21.6354H134.98Z" fill="white"/>
<path d="M160.276 21.6354L169.42 0.36464H174.109L183.283 21.6354H178.3L170.797 2.85635H172.673L165.141 21.6354H160.276ZM164.848 17.0773L166.108 13.3398H176.659L177.949 17.0773H164.848Z" fill="white"/>
<path d="M187.454 21.6354V11H188.539V21.6354H187.454Z" fill="white"/>
<path d="M191.876 21.6354V11H192.77L199.848 20.2376H199.379V11H200.449V21.6354H199.555L192.492 12.3978H192.961V21.6354H191.876Z" fill="white"/>
<path d="M203.797 21.6354V11H207.974C209.068 11 210.025 11.2279 210.846 11.6837C211.676 12.1294 212.321 12.7523 212.78 13.5525C213.24 14.3527 213.469 15.2744 213.469 16.3177C213.469 17.361 213.24 18.2827 212.78 19.0829C212.321 19.8831 211.676 20.511 210.846 20.9669C210.025 21.4125 209.068 21.6354 207.974 21.6354H203.797ZM204.882 20.663H207.915C208.824 20.663 209.61 20.4807 210.275 20.116C210.949 19.7413 211.471 19.2297 211.843 18.5815C212.214 17.9231 212.399 17.1685 212.399 16.3177C212.399 15.4567 212.214 14.7021 211.843 14.0539C211.471 13.4056 210.949 12.8992 210.275 12.5345C209.61 12.1598 208.824 11.9724 207.915 11.9724H204.882V20.663Z" fill="white"/>
<path d="M214.12 21.6354L218.809 11H219.879L224.568 21.6354H223.425L219.117 11.6533H219.557L215.248 21.6354H214.12ZM215.966 18.7942L216.289 17.8826H222.253L222.575 18.7942H215.966Z" fill="white"/>
<path d="M233.768 11H234.838V21.6354H233.768V11ZM227.35 21.6354H226.265V11H227.35V21.6354ZM233.871 16.7279H227.233V15.7403H233.871V16.7279Z" fill="white"/>
<path d="M242.022 21.6354V11H242.916L247.605 19.2956H247.136L251.781 11H252.675V21.6354H251.635V12.6865H251.884L247.605 20.2831H247.092L242.784 12.6865H243.062V21.6354H242.022Z" fill="white"/>
<path d="M256.985 15.7555H262.407V16.7127H256.985V15.7555ZM257.102 20.663H263.272V21.6354H256.018V11H263.052V11.9724H257.102V20.663Z" fill="white"/>
<path d="M265.821 21.6354V11H266.714L273.793 20.2376H273.324V11H274.393V21.6354H273.499L266.436 12.3978H266.905V21.6354H265.821Z" fill="white"/>
<path d="M282.24 21.7265C281.459 21.7265 280.736 21.5948 280.072 21.3315C279.417 21.058 278.845 20.6782 278.357 20.192C277.878 19.7058 277.502 19.1335 277.229 18.4751C276.965 17.8168 276.833 17.0976 276.833 16.3177C276.833 15.5378 276.965 14.8186 277.229 14.1602C277.502 13.5018 277.883 12.9296 278.372 12.4434C278.86 11.9572 279.432 11.5824 280.086 11.3191C280.751 11.0456 281.473 10.9088 282.255 10.9088C283.037 10.9088 283.75 11.0355 284.395 11.2887C285.049 11.5419 285.606 11.9268 286.065 12.4434L285.391 13.1575C284.961 12.7118 284.487 12.3927 283.97 12.2003C283.452 12.0078 282.895 11.9116 282.299 11.9116C281.664 11.9116 281.078 12.023 280.54 12.2459C280.013 12.4586 279.549 12.7675 279.148 13.1727C278.758 13.5677 278.45 14.0336 278.225 14.5704C278.01 15.0971 277.903 15.6796 277.903 16.3177C277.903 16.9457 278.01 17.5281 278.225 18.0649C278.45 18.6017 278.758 19.0727 279.148 19.4779C279.549 19.8729 280.013 20.1819 280.54 20.4047C281.078 20.6174 281.659 20.7238 282.284 20.7238C282.87 20.7238 283.422 20.6326 283.94 20.4503C284.468 20.268 284.951 19.959 285.391 19.5235L286.007 20.3743C285.518 20.82 284.947 21.1593 284.292 21.3923C283.637 21.6151 282.954 21.7265 282.24 21.7265ZM284.966 20.2376V16.3177H286.007V20.3743L284.966 20.2376Z" fill="white"/>
<path d="M287.434 21.6354L292.124 11H293.194L297.883 21.6354H296.74L292.432 11.6533H292.871L288.563 21.6354H287.434ZM289.281 18.7942L289.603 17.8826H295.568L295.89 18.7942H289.281Z" fill="white"/>
<path d="M299.58 21.6354V11H300.474L307.552 20.2376H307.083V11H308.153V21.6354H307.259L300.195 12.3978H300.664V21.6354H299.58Z" fill="white"/>
<path d="M313.494 21.6354V11.9724H309.889V11H318.183V11.9724H314.578V21.6354H313.494Z" fill="white"/>
<path d="M319.916 21.6354V11H321V21.6354H319.916Z" fill="white"/>
</svg>
